# xmcd
#
# Track frame offsets:
#	150
#	12955
#	24330
#	34380
#	45750
#	59690
#	68652
#	84457
#	96242
#	106910
#	115970
#	125210
#	140152
#	151347
#	161725
#	170895
#	179467
#	188902
#	200640
#	209625
#	217112
#	220802
#	230620
#	239802
#	249905
#	260185
#	273702
#	288312
#	300855
#	314342
#	325727
#	338512
#
# Disc length: 4678 seconds
#
# Revision: 0
# Processed by: cddbd v1.5.1PL2 Copyright (c) Steve Scherf et al.
# Submitted via: dBpowerAMP V4.0
#
DISCID=ef124420
DTITLE=Jimmie Skinner - Doin' My Time CD5
DYEAR=2003
DGENRE=Country
TTITLE0=Hobo Bill's Last Ride
TTITLE1=My Rough And Rowdy Ways
TTITLE2=Dear Old Sunny South By The Sea
TTITLE3=Jimmie The Kid
TTITLE4=The Soldier's Sweetheart
TTITLE5=My Blue Eyed Jane
TTITLE6=Moonlight And Skies
TTITLE7=I Miss The Mississippi And You
TTITLE8=Never No Mo' Blues
TTITLE9=Tuck Away My Lonesome Blues
TTITLE10=Somewhere Down Below The Mason Dixon Line
TTITLE11=Jimmie Rodgers' Last Blue Yodel
TTITLE12=100 Proof Heartaches
TTITLE13=Wooden Angels
TTITLE14=I Know You're Married (But I Love You Still)
TTITLE15=One Dead Man Ago
TTITLE16=Rambler's Call
TTITLE17=Our World's Are Far Apart
TTITLE18=Restless Heart
TTITLE19=You Sure Don't Know My Mind
TTITLE20=Jimmie's Theme (Mammy's Lullaby) (with yodel)
TTITLE21=Down The Road To Love (& Joe 'Cannonball' Lewis)
TTITLE22=Lost Lover Blues (& Joe 'Cannonball' Lewis)
TTITLE23=Don't Say That It's Too Late (& Joe ' Cannonball' Lewis)
TTITLE24=Ramblin' Boy Blues
TTITLE25=Way Down In Dixieland
TTITLE26=John Henry
TTITLE27=Headin' South
TTITLE28=Six Month Blues
TTITLE29=Down Home Blues
TTITLE30=Doin' My Time
TTITLE31=Someone To Love Me Always
EXTD=
EXTT0=
EXTT1=
EXTT2=
EXTT3=
EXTT4=
EXTT5=
EXTT6=
EXTT7=
EXTT8=
EXTT9=
EXTT10=
EXTT11=
EXTT12=
EXTT13=
EXTT14=
EXTT15=
EXTT16=
EXTT17=
EXTT18=
EXTT19=
EXTT20=
EXTT21=
EXTT22=
EXTT23=
EXTT24=
EXTT25=
EXTT26=
EXTT27=
EXTT28=
EXTT29=
EXTT30=
EXTT31=
PLAYORDER=
